<?xml version="1.0" encoding="UTF-8"?><svg id="Ebene_1" xmlns="http://www.w3.org/2000/svg" viewBox="0 0 161.83 129.46"><defs><style>.cls-1{fill:#233519;}.cls-1,.cls-2,.cls-3,.cls-4{stroke-width:0px;}.cls-2{fill:#35a047;}.cls-3{fill:#7ed7c1;}.cls-4{fill:#282828;}</style></defs><path class="cls-3" d="M161.83,16.75v95.96c0,9.25-7.5,16.75-16.75,16.75h-23.49c7.13-4.53,11.87-12.51,11.87-21.57V21.58c0-9.06-4.74-17.04-11.87-21.58h23.49c9.25,0,16.75,7.5,16.75,16.75Z"/><path class="cls-4" d="M155.71,104.33c-.85.6-2.13.91-3.85.91h-7.19c-1.54,0-2.71-.35-3.5-1.06s-1.18-1.75-1.18-3.15c0-1.13.22-2,.66-2.63.44-.62,1.08-1.06,1.92-1.29.84-.24,1.92-.36,3.24-.36v3.35h-1.5c-.4,0-.71.06-.93.17-.22.11-.33.32-.33.61,0,.65.42.98,1.24.98h8.08c.5,0,.89-.07,1.15-.2.26-.13.39-.37.39-.7s-.13-.56-.39-.7c-.26-.13-.64-.2-1.15-.2h-2.39v.92h-2.88v-4.18h9.71v1.37l-1.4.58c1.04.61,1.55,1.55,1.55,2.83s-.42,2.15-1.27,2.76Z"/><path class="cls-4" d="M156.83,95.43h-16.68v-6.85h3.22v3.37h3.24v-3.23h3.15v3.23h3.83v-3.59h3.24v7.07Z"/><path class="cls-4" d="M156.83,87.23h-16.68v-3.53l7.98-1.57h-7.98v-3.31h16.68v3.35l-8.35,1.71h8.35v3.35Z"/><path class="cls-4" d="M156.83,77.3h-16.68v-6.85h3.22v3.37h3.24v-3.23h3.15v3.23h3.83v-3.59h3.24v7.07Z"/><path class="cls-4" d="M140.15,69.1v-5.26c0-.84.18-1.48.55-1.94.37-.46.89-.77,1.55-.93.67-.16,1.52-.24,2.55-.24.95,0,1.68.13,2.21.38.53.25.9.69,1.11,1.31.1-.52.36-.89.76-1.13.4-.23.95-.35,1.63-.35l6.31.04v3.35h-6.53c-.47,0-.76.09-.89.28-.13.19-.19.52-.19,1.02h7.61v3.47h-16.68ZM146.32,64.79c0-.48-.5-.72-1.51-.72-.44,0-.77.02-.99.06-.22.04-.37.11-.46.22-.08.11-.13.26-.13.46v.8h3.09v-.82Z"/><path class="cls-4" d="M156.83,60.05l-16.68-1.65v-5.8l16.68-1.63v3.25l-2.7.24v2.07l2.7.2v3.33ZM151.47,56.27v-1.55l-8.49.76v.16l8.49.64Z"/><path class="cls-4" d="M156.83,48.46h-13.48v2.03h-3.2v-7.49h3.2v2.03h13.48v3.43Z"/><path class="cls-4" d="M155.75,41.11c-.82.72-1.98,1.08-3.47,1.08h-7.94c-1.44,0-2.52-.36-3.25-1.08s-1.1-1.77-1.1-3.15.37-2.43,1.1-3.15,1.82-1.08,3.25-1.08h7.94c1.5,0,2.66.36,3.48,1.08s1.22,1.77,1.22,3.15-.41,2.43-1.23,3.15ZM153.53,37.34c-.26-.11-.62-.16-1.09-.16h-8.16c-.36,0-.66.05-.88.15s-.34.3-.34.61c0,.57.42.86,1.26.86h8.14c.48,0,.84-.06,1.09-.18s.37-.34.37-.66-.13-.51-.39-.62Z"/><path class="cls-4" d="M140.15,32.36v-5.26c0-.84.18-1.48.55-1.94.37-.46.89-.77,1.55-.93.67-.16,1.52-.24,2.55-.24.95,0,1.68.13,2.21.38.53.25.9.69,1.11,1.31.1-.52.36-.89.76-1.13.4-.23.95-.35,1.63-.35l6.31.04v3.35h-6.53c-.47,0-.76.09-.89.28-.13.19-.19.52-.19,1.02h7.61v3.47h-16.68ZM146.32,28.06c0-.48-.5-.72-1.51-.72-.44,0-.77.02-.99.06-.22.04-.37.11-.46.22-.08.11-.13.26-.13.46v.8h3.09v-.82Z"/><path class="cls-2" d="M129.46,21.58v86.31c0,10.83-7.99,19.81-18.4,21.34-1.04.15-2.09.23-3.17.23H21.58c-11.92,0-21.58-9.66-21.58-21.57V21.58C0,9.66,9.66,0,21.58,0h86.31c1.08,0,2.13.08,3.17.23,10.41,1.53,18.4,10.51,18.4,21.35Z"/><path class="cls-1" d="M42.33,31.58v53.04h10.49v13.27h-27.73V31.58h17.24Z"/><path class="cls-1" d="M104.38,60.45h-17.24v-11.53c0-3.35-.18-5.44-.55-6.28-.37-.83-1.18-1.25-2.44-1.25-1.42,0-2.32.51-2.7,1.52-.38,1.01-.57,3.2-.57,6.55v30.8c0,3.22.19,5.32.57,6.31.38.98,1.24,1.47,2.58,1.48,1.28,0,2.13-.49,2.53-1.48.4-.99.6-3.3.59-6.93v-8.34h17.24v2.58c0,6.86-.48,11.73-1.45,14.6-.97,2.87-3.11,5.39-6.43,7.55-3.32,2.16-7.41,3.24-12.27,3.24s-9.22-.91-12.49-2.74c-3.27-1.83-5.44-4.36-6.51-7.6-1.06-3.24-1.6-8.1-1.6-14.6v-19.38c0-4.78.16-8.36.49-10.75.33-2.39,1.3-4.69,2.93-6.9,1.62-2.21,3.88-3.95,6.76-5.22,2.88-1.27,6.19-1.91,9.93-1.9,5.08,0,9.27.98,12.57,2.95s5.47,4.41,6.51,7.33c1.04,2.93,1.56,7.49,1.56,13.68v6.31Z"/></svg>